<?xml version="1.0" standalone="no"?>
<!DOCTYPE svg PUBLIC "-//W3C//DTD SVG 20010904//EN"
 "http://www.w3.org/TR/2001/REC-SVG-20010904/DTD/svg10.dtd">
<svg version="1.0" xmlns="http://www.w3.org/2000/svg"
 width="512.000000pt" height="512.000000pt" viewBox="0 0 512.000000 512.000000"
 preserveAspectRatio="xMidYMid meet">
<metadata>
Created by potrace 1.16, written by Peter Selinger 2001-2019
</metadata>
<g transform="translate(0.000000,512.000000) scale(0.100000,-0.100000)"
fill="#000000" stroke="none">
<path d="M2265 5109 c-487 -60 -917 -239 -1310 -547 -104 -82 -350 -334 -431
-442 -267 -357 -434 -745 -501 -1170 -26 -164 -26 -616 0 -780 82 -519 319
-998 680 -1376 394 -412 874 -667 1441 -766 174 -30 543 -37 727 -13 1188 149
2110 1084 2239 2272 16 145 8 533 -14 667 -184 1134 -1088 2011 -2216 2151
-135 16 -493 19 -615 4z m1606 -1919 c87 -17 160 -89 174 -171 15 -85 -39
-184 -119 -220 -39 -18 -98 -19 -1366 -19 -1268 0 -1327 1 -1366 19 -80 36
-134 135 -119 220 13 78 88 155 166 170 64 13 2563 13 2630 1z m55 -869 c80
-36 134 -135 119 -220 -14 -82 -87 -154 -174 -171 -74 -14 -2548 -14 -2622 0
-87 17 -160 89 -174 171 -15 85 39 184 119 220 39 18 98 19 1366 19 1268 0
1327 -1 1366 -19z"/>
</g>
</svg>
