<svg id="svg" version="1.1" xmlns="http://www.w3.org/2000/svg" xmlns:xlink="http://www.w3.org/1999/xlink" width="400" height="400" viewBox="0, 0, 400,400"><g id="svgg"><path id="path0" d="M92.600 16.400 C 92.754 16.650,91.937 16.800,90.424 16.800 C 89.075 16.800,88.000 16.977,88.000 17.200 C 88.000 17.420,87.100 17.600,86.000 17.600 C 84.900 17.600,84.000 17.780,84.000 18.000 C 84.000 18.220,83.280 18.400,82.400 18.400 C 81.520 18.400,80.800 18.580,80.800 18.800 C 80.800 19.020,80.080 19.200,79.200 19.200 C 78.320 19.200,77.600 19.380,77.600 19.600 C 77.600 19.820,77.161 20.000,76.624 20.000 C 76.087 20.000,75.536 20.180,75.400 20.400 C 75.264 20.620,74.713 20.800,74.176 20.800 C 73.639 20.800,73.200 20.980,73.200 21.200 C 73.200 21.420,72.660 21.600,72.000 21.600 C 71.340 21.600,70.800 21.780,70.800 22.000 C 70.800 22.220,70.260 22.400,69.600 22.400 C 68.940 22.400,68.400 22.580,68.400 22.800 C 68.400 23.020,68.040 23.200,67.600 23.200 C 67.160 23.200,66.800 23.380,66.800 23.600 C 66.800 23.820,66.440 24.000,66.000 24.000 C 65.560 24.000,65.200 24.180,65.200 24.400 C 65.200 24.620,64.870 24.800,64.467 24.800 C 64.063 24.800,63.598 24.935,63.433 25.100 C 63.268 25.265,63.013 25.406,62.867 25.414 C 62.720 25.422,62.219 25.641,61.753 25.900 C 61.287 26.160,60.792 26.258,60.653 26.119 C 60.514 25.980,60.400 26.077,60.400 26.333 C 60.400 26.590,60.130 26.800,59.800 26.800 C 59.470 26.800,59.200 26.980,59.200 27.200 C 59.200 27.420,58.840 27.600,58.400 27.600 C 57.960 27.600,57.597 27.735,57.594 27.900 C 57.590 28.065,56.690 28.640,55.594 29.179 C 54.497 29.717,53.600 30.302,53.600 30.479 C 53.600 30.655,53.280 30.800,52.888 30.800 C 52.497 30.800,51.917 31.160,51.600 31.600 C 51.283 32.040,50.743 32.400,50.400 32.400 C 50.057 32.400,49.517 32.760,49.200 33.200 C 48.883 33.640,48.420 34.000,48.171 34.000 C 47.922 34.000,47.154 34.540,46.463 35.200 C 45.772 35.860,45.057 36.400,44.874 36.400 C 44.691 36.400,43.834 37.117,42.970 37.993 C 42.107 38.870,41.271 39.590,41.113 39.593 C 40.400 39.610,29.551 50.197,28.789 51.620 C 28.514 52.134,27.639 53.262,26.844 54.127 C 26.050 54.992,25.438 55.837,25.485 56.006 C 25.532 56.174,25.037 56.870,24.385 57.552 C 23.733 58.235,23.200 58.973,23.200 59.193 C 23.200 59.413,22.840 59.818,22.400 60.093 C 21.960 60.368,21.600 60.819,21.600 61.096 C 21.600 61.373,21.420 61.600,21.200 61.600 C 20.980 61.600,20.800 61.788,20.800 62.017 C 20.800 62.246,20.440 62.820,20.000 63.292 C 19.560 63.764,19.200 64.387,19.200 64.675 C 19.200 64.964,19.020 65.200,18.800 65.200 C 18.580 65.200,18.400 65.436,18.400 65.725 C 18.400 66.013,18.040 66.636,17.600 67.108 C 17.160 67.580,16.800 68.244,16.800 68.583 C 16.800 68.922,16.620 69.200,16.400 69.200 C 16.180 69.200,16.000 69.478,16.000 69.817 C 16.000 70.156,15.640 70.820,15.200 71.292 C 14.760 71.764,14.400 72.387,14.400 72.675 C 14.400 72.964,14.220 73.200,14.000 73.200 C 13.780 73.200,13.600 73.560,13.600 74.000 C 13.600 74.440,13.454 74.800,13.275 74.800 C 13.096 74.800,12.702 75.430,12.400 76.200 C 12.098 76.970,11.704 77.600,11.525 77.600 C 11.346 77.600,11.200 77.960,11.200 78.400 C 11.200 78.840,11.020 79.200,10.800 79.200 C 10.580 79.200,10.400 79.740,10.400 80.400 C 10.400 81.060,10.220 81.600,10.000 81.600 C 9.780 81.600,9.600 81.949,9.600 82.376 C 9.600 82.803,9.428 83.259,9.217 83.389 C 9.007 83.519,8.936 83.890,9.060 84.213 C 9.184 84.536,9.086 84.800,8.843 84.800 C 8.599 84.800,8.400 85.340,8.400 86.000 C 8.400 86.660,8.220 87.200,8.000 87.200 C 7.780 87.200,7.600 87.560,7.600 88.000 C 7.600 88.440,7.420 88.800,7.200 88.800 C 6.980 88.800,6.800 89.340,6.800 90.000 C 6.800 90.660,6.620 91.200,6.400 91.200 C 6.180 91.200,6.000 91.639,6.000 92.176 C 6.000 92.713,5.820 93.264,5.600 93.400 C 5.380 93.536,5.200 94.076,5.200 94.600 C 5.200 95.124,5.020 95.664,4.800 95.800 C 4.580 95.936,4.400 96.667,4.400 97.424 C 4.400 98.181,4.220 98.800,4.000 98.800 C 3.780 98.800,3.600 99.520,3.600 100.400 C 3.600 101.280,3.420 102.000,3.200 102.000 C 2.980 102.000,2.800 102.720,2.800 103.600 C 2.800 104.480,2.620 105.200,2.400 105.200 C 2.180 105.200,2.000 105.999,2.000 106.976 C 2.000 107.953,1.820 108.864,1.600 109.000 C 1.380 109.136,1.200 110.032,1.200 110.990 C 1.200 112.029,0.998 112.801,0.700 112.900 C -0.031 113.144,-0.031 155.656,0.700 155.900 C 0.999 156.000,1.200 156.776,1.200 157.833 C 1.200 158.805,1.380 159.600,1.600 159.600 C 1.820 159.600,2.000 160.500,2.000 161.600 C 2.000 162.700,2.180 163.600,2.400 163.600 C 2.620 163.600,2.800 164.320,2.800 165.200 C 2.800 166.080,2.980 166.800,3.200 166.800 C 3.420 166.800,3.600 167.520,3.600 168.400 C 3.600 169.280,3.780 170.000,4.000 170.000 C 4.220 170.000,4.400 170.540,4.400 171.200 C 4.400 171.860,4.580 172.400,4.800 172.400 C 5.020 172.400,5.200 173.030,5.200 173.800 C 5.200 174.570,5.380 175.200,5.600 175.200 C 5.820 175.200,6.000 175.560,6.000 176.000 C 6.000 176.440,6.180 176.800,6.400 176.800 C 6.620 176.800,6.800 177.340,6.800 178.000 C 6.800 178.660,6.980 179.200,7.200 179.200 C 7.420 179.200,7.600 179.740,7.600 180.400 C 7.600 181.060,7.780 181.600,8.000 181.600 C 8.220 181.600,8.400 181.960,8.400 182.400 C 8.400 182.840,8.600 183.200,8.845 183.200 C 9.107 183.200,9.222 183.667,9.125 184.330 C 9.033 184.955,9.195 185.680,9.488 185.954 C 9.779 186.226,9.913 186.617,9.785 186.824 C 9.657 187.031,9.743 187.200,9.976 187.200 C 10.209 187.200,10.400 187.560,10.400 188.000 C 10.400 188.440,10.580 188.800,10.800 188.800 C 11.020 188.800,11.200 189.160,11.200 189.600 C 11.200 190.040,11.346 190.400,11.525 190.400 C 11.704 190.400,12.098 191.030,12.400 191.800 C 12.702 192.570,13.096 193.200,13.275 193.200 C 13.454 193.200,13.600 193.560,13.600 194.000 C 13.600 194.440,13.780 194.800,14.000 194.800 C 14.220 194.800,14.400 195.160,14.400 195.600 C 14.400 196.040,14.580 196.400,14.800 196.400 C 15.020 196.400,15.200 196.760,15.200 197.200 C 15.200 197.640,15.380 198.000,15.600 198.000 C 15.820 198.000,16.000 198.320,16.000 198.712 C 16.000 199.103,16.360 199.683,16.800 200.000 C 17.240 200.317,17.600 200.897,17.600 201.288 C 17.600 201.680,17.780 202.000,18.000 202.000 C 18.220 202.000,18.400 202.270,18.400 202.600 C 18.400 202.930,18.580 203.200,18.800 203.200 C 19.020 203.200,19.200 203.470,19.200 203.800 C 19.200 204.130,19.380 204.400,19.600 204.400 C 19.820 204.400,20.000 204.670,20.000 205.000 C 20.000 205.330,20.180 205.600,20.400 205.600 C 20.620 205.600,20.800 205.778,20.800 205.995 C 20.800 206.416,21.626 207.507,23.100 209.032 C 23.595 209.544,24.009 210.197,24.020 210.482 C 24.030 210.767,24.749 211.720,25.617 212.600 C 26.484 213.480,27.196 214.423,27.197 214.697 C 27.201 215.294,37.001 225.200,37.589 225.200 C 37.815 225.200,38.000 225.466,38.000 225.791 C 38.000 226.116,38.990 227.404,40.200 228.653 C 41.410 229.902,42.400 231.076,42.400 231.262 C 42.400 231.448,42.700 231.600,43.067 231.600 C 43.433 231.600,43.619 231.714,43.480 231.853 C 43.341 231.993,45.407 234.198,48.072 236.753 C 50.737 239.309,54.916 243.449,57.359 245.952 C 59.802 248.456,63.659 252.326,65.930 254.552 C 68.202 256.779,90.273 278.760,114.978 303.400 C 173.661 361.931,195.221 383.200,195.870 383.200 C 196.162 383.200,196.400 383.380,196.400 383.600 C 196.400 383.837,197.867 384.000,200.000 384.000 C 202.133 384.000,203.600 383.837,203.600 383.600 C 203.600 383.380,203.888 383.200,204.239 383.200 C 204.590 383.200,231.545 356.579,264.139 324.042 C 376.149 212.225,374.000 214.388,374.000 213.497 C 374.000 213.144,374.460 212.539,375.900 210.999 C 376.395 210.470,376.800 209.770,376.800 209.445 C 376.800 209.120,377.160 208.740,377.600 208.600 C 378.040 208.460,378.400 208.038,378.400 207.661 C 378.400 207.285,378.760 206.717,379.200 206.400 C 379.640 206.083,380.000 205.543,380.000 205.200 C 380.000 204.857,380.360 204.317,380.800 204.000 C 381.240 203.683,381.600 203.186,381.600 202.895 C 381.600 202.604,381.960 201.980,382.400 201.508 C 382.840 201.036,383.200 200.413,383.200 200.125 C 383.200 199.836,383.380 199.600,383.600 199.600 C 383.820 199.600,384.000 199.240,384.000 198.800 C 384.000 198.360,384.180 198.000,384.400 198.000 C 384.620 198.000,384.800 197.640,384.800 197.200 C 384.800 196.760,384.958 196.400,385.151 196.400 C 385.345 196.400,385.727 195.860,386.000 195.200 C 386.273 194.540,386.655 194.000,386.849 194.000 C 387.042 194.000,387.200 193.640,387.200 193.200 C 387.200 192.760,387.335 192.399,387.500 192.397 C 387.906 192.393,388.800 190.414,388.800 189.520 C 388.800 189.124,388.980 188.800,389.200 188.800 C 389.420 188.800,389.600 188.440,389.600 188.000 C 389.600 187.560,389.780 187.200,390.000 187.200 C 390.220 187.200,390.400 186.951,390.400 186.646 C 390.400 186.341,390.669 185.576,390.998 184.946 C 391.326 184.316,391.596 183.305,391.598 182.700 C 391.599 182.095,391.780 181.600,392.000 181.600 C 392.220 181.600,392.400 181.060,392.400 180.400 C 392.400 179.740,392.580 179.200,392.800 179.200 C 393.020 179.200,393.200 178.840,393.200 178.400 C 393.200 177.960,393.380 177.600,393.600 177.600 C 393.820 177.600,394.000 177.060,394.000 176.400 C 394.000 175.740,394.180 175.200,394.400 175.200 C 394.620 175.200,394.800 174.750,394.800 174.200 C 394.800 173.650,394.980 173.200,395.200 173.200 C 395.420 173.200,395.600 172.480,395.600 171.600 C 395.600 170.720,395.780 170.000,396.000 170.000 C 396.220 170.000,396.400 169.280,396.400 168.400 C 396.400 167.520,396.580 166.800,396.800 166.800 C 397.020 166.800,397.200 166.080,397.200 165.200 C 397.200 164.320,397.380 163.600,397.600 163.600 C 397.820 163.600,398.000 162.700,398.000 161.600 C 398.000 160.500,398.180 159.600,398.400 159.600 C 398.620 159.600,398.800 158.805,398.800 157.833 C 398.800 156.776,399.001 156.000,399.300 155.900 C 399.692 155.769,399.800 151.111,399.800 134.400 C 399.800 117.689,399.692 113.031,399.300 112.900 C 399.002 112.801,398.800 112.029,398.800 110.990 C 398.800 110.032,398.620 109.136,398.400 109.000 C 398.180 108.864,398.000 107.953,398.000 106.976 C 398.000 105.999,397.820 105.200,397.600 105.200 C 397.380 105.200,397.200 104.480,397.200 103.600 C 397.200 102.720,397.020 102.000,396.800 102.000 C 396.580 102.000,396.400 101.280,396.400 100.400 C 396.400 99.520,396.220 98.800,396.000 98.800 C 395.780 98.800,395.600 98.080,395.600 97.200 C 395.600 96.320,395.420 95.600,395.200 95.600 C 394.980 95.600,394.800 95.161,394.800 94.624 C 394.800 94.087,394.620 93.536,394.400 93.400 C 394.180 93.264,394.000 92.713,394.000 92.176 C 394.000 91.639,393.820 91.200,393.600 91.200 C 393.380 91.200,393.200 90.660,393.200 90.000 C 393.200 89.340,393.020 88.800,392.800 88.800 C 392.580 88.800,392.400 88.440,392.400 88.000 C 392.400 87.560,392.220 87.200,392.000 87.200 C 391.780 87.200,391.599 86.705,391.598 86.100 C 391.596 85.495,391.326 84.484,390.998 83.854 C 390.669 83.224,390.400 82.459,390.400 82.154 C 390.400 81.849,390.220 81.600,390.000 81.600 C 389.780 81.600,389.600 81.060,389.600 80.400 C 389.600 79.740,389.420 79.200,389.200 79.200 C 388.980 79.200,388.800 78.840,388.800 78.400 C 388.800 77.960,388.654 77.600,388.475 77.600 C 388.296 77.600,387.902 76.970,387.600 76.200 C 387.298 75.430,386.904 74.800,386.725 74.800 C 386.546 74.800,386.400 74.440,386.400 74.000 C 386.400 73.560,386.220 73.200,386.000 73.200 C 385.780 73.200,385.600 72.964,385.600 72.675 C 385.600 72.387,385.240 71.764,384.800 71.292 C 384.360 70.820,384.000 70.156,384.000 69.817 C 384.000 69.478,383.820 69.200,383.600 69.200 C 383.380 69.200,383.200 68.922,383.200 68.583 C 383.200 68.244,382.840 67.580,382.400 67.108 C 381.960 66.636,381.600 66.013,381.600 65.725 C 381.600 65.436,381.420 65.200,381.200 65.200 C 380.980 65.200,380.800 64.964,380.800 64.675 C 380.800 64.387,380.440 63.764,380.000 63.292 C 379.560 62.820,379.200 62.246,379.200 62.017 C 379.200 61.788,379.020 61.600,378.800 61.600 C 378.580 61.600,378.400 61.373,378.400 61.096 C 378.400 60.819,378.040 60.368,377.600 60.093 C 377.160 59.818,376.800 59.391,376.800 59.144 C 376.800 58.896,376.467 58.403,376.059 58.047 C 375.652 57.691,375.036 56.860,374.692 56.200 C 374.347 55.540,373.421 54.302,372.633 53.450 C 371.845 52.597,371.200 51.744,371.200 51.554 C 371.200 50.952,359.543 39.600,358.924 39.600 C 358.787 39.600,357.969 38.880,357.107 38.000 C 356.244 37.120,355.371 36.400,355.166 36.400 C 354.961 36.400,354.228 35.860,353.537 35.200 C 352.846 34.540,352.078 34.000,351.829 34.000 C 351.580 34.000,351.117 33.640,350.800 33.200 C 350.483 32.760,349.943 32.400,349.600 32.400 C 349.257 32.400,348.717 32.040,348.400 31.600 C 348.083 31.160,347.586 30.800,347.295 30.800 C 347.004 30.800,346.380 30.440,345.908 30.000 C 345.436 29.560,344.813 29.200,344.525 29.200 C 344.236 29.200,344.000 29.020,344.000 28.800 C 344.000 28.580,343.640 28.400,343.200 28.400 C 342.760 28.400,342.400 28.254,342.400 28.075 C 342.400 27.896,341.770 27.502,341.000 27.200 C 340.230 26.898,339.600 26.494,339.600 26.302 C 339.600 26.110,339.447 26.048,339.259 26.164 C 339.071 26.280,338.584 26.130,338.176 25.832 C 337.767 25.533,337.201 25.378,336.917 25.487 C 336.633 25.596,336.400 25.486,336.400 25.243 C 336.400 24.999,336.040 24.800,335.600 24.800 C 335.160 24.800,334.800 24.620,334.800 24.400 C 334.800 24.180,334.440 24.000,334.000 24.000 C 333.560 24.000,333.200 23.820,333.200 23.600 C 333.200 23.380,332.840 23.200,332.400 23.200 C 331.960 23.200,331.600 23.020,331.600 22.800 C 331.600 22.580,331.060 22.400,330.400 22.400 C 329.740 22.400,329.200 22.220,329.200 22.000 C 329.200 21.780,328.660 21.600,328.000 21.600 C 327.340 21.600,326.800 21.420,326.800 21.200 C 326.800 20.980,326.350 20.800,325.800 20.800 C 325.250 20.800,324.800 20.620,324.800 20.400 C 324.800 20.180,324.260 20.000,323.600 20.000 C 322.940 20.000,322.400 19.820,322.400 19.600 C 322.400 19.380,321.860 19.200,321.200 19.200 C 320.540 19.200,320.000 19.020,320.000 18.800 C 320.000 18.580,319.100 18.400,318.000 18.400 C 316.900 18.400,316.000 18.220,316.000 18.000 C 316.000 17.780,315.100 17.600,314.000 17.600 C 312.900 17.600,312.000 17.420,312.000 17.200 C 312.000 16.980,311.010 16.800,309.800 16.800 C 308.590 16.800,307.600 16.620,307.600 16.400 C 307.600 16.143,303.800 16.000,297.000 16.000 C 290.200 16.000,286.400 16.143,286.400 16.400 C 286.400 16.629,285.200 16.800,283.600 16.800 C 282.000 16.800,280.800 16.971,280.800 17.200 C 280.800 17.420,280.080 17.600,279.200 17.600 C 278.320 17.600,277.600 17.780,277.600 18.000 C 277.600 18.220,276.970 18.400,276.200 18.400 C 275.430 18.400,274.800 18.580,274.800 18.800 C 274.800 19.020,274.260 19.200,273.600 19.200 C 272.940 19.200,272.400 19.380,272.400 19.600 C 272.400 19.820,271.860 20.000,271.200 20.000 C 270.540 20.000,270.000 20.180,270.000 20.400 C 270.000 20.620,269.460 20.800,268.800 20.800 C 268.140 20.800,267.600 20.980,267.600 21.200 C 267.600 21.420,267.060 21.600,266.400 21.600 C 265.740 21.600,265.200 21.780,265.200 22.000 C 265.200 22.220,264.840 22.400,264.400 22.400 C 263.960 22.400,263.600 22.580,263.600 22.800 C 263.600 23.020,263.328 23.200,262.995 23.200 C 262.662 23.200,262.077 23.368,261.695 23.574 C 261.313 23.779,260.415 24.183,259.700 24.471 C 258.985 24.760,258.400 25.116,258.400 25.262 C 258.400 25.409,257.680 25.651,256.800 25.800 C 255.920 25.949,255.200 26.234,255.200 26.435 C 255.200 26.636,254.964 26.800,254.675 26.800 C 254.387 26.800,253.764 27.160,253.292 27.600 C 252.820 28.040,252.156 28.400,251.817 28.400 C 251.478 28.400,251.200 28.580,251.200 28.800 C 251.200 29.020,250.922 29.200,250.583 29.200 C 250.244 29.200,249.580 29.560,249.108 30.000 C 248.636 30.440,248.013 30.800,247.725 30.800 C 247.436 30.800,247.200 30.980,247.200 31.200 C 247.200 31.420,246.906 31.600,246.547 31.600 C 246.188 31.600,245.603 31.916,245.247 32.303 C 244.891 32.689,244.105 33.260,243.500 33.570 C 242.895 33.881,242.400 34.285,242.400 34.468 C 242.400 34.650,242.202 34.800,241.960 34.800 C 241.719 34.800,241.017 35.340,240.400 36.000 C 239.783 36.660,239.080 37.200,238.836 37.200 C 238.592 37.200,237.828 37.740,237.137 38.400 C 236.446 39.060,235.714 39.600,235.509 39.600 C 235.305 39.600,234.431 40.313,233.569 41.184 C 232.706 42.056,232.000 42.677,232.000 42.565 C 232.000 41.758,228.541 44.853,219.812 53.468 C 216.654 56.586,213.964 59.031,213.835 58.902 C 213.706 58.772,213.600 58.874,213.600 59.126 C 213.600 59.553,212.683 60.705,210.524 62.989 C 210.043 63.498,209.758 64.024,209.891 64.158 C 210.024 64.291,209.803 64.400,209.400 64.400 C 208.997 64.400,208.779 64.512,208.915 64.649 C 209.052 64.785,208.452 65.581,207.582 66.417 C 206.712 67.253,206.000 68.130,206.000 68.367 C 206.000 68.603,205.100 69.715,204.000 70.839 C 202.900 71.962,202.000 73.051,202.000 73.259 C 202.000 73.466,201.550 74.086,201.000 74.636 L 200.000 75.636 199.000 74.636 C 198.450 74.086,198.000 73.466,198.000 73.259 C 198.000 73.051,197.100 71.962,196.000 70.839 C 194.900 69.715,194.000 68.611,194.000 68.385 C 194.000 68.158,193.415 67.360,192.700 66.610 C 191.985 65.860,190.680 64.411,189.800 63.391 C 188.920 62.370,187.795 61.108,187.300 60.586 C 186.805 60.064,186.400 59.418,186.400 59.152 C 186.400 58.885,186.294 58.772,186.165 58.902 C 186.036 59.031,183.346 56.586,180.188 53.468 C 171.459 44.853,168.000 41.758,168.000 42.565 C 168.000 42.677,167.294 42.056,166.431 41.184 C 165.569 40.313,164.695 39.600,164.491 39.600 C 164.286 39.600,163.554 39.060,162.863 38.400 C 162.172 37.740,161.408 37.200,161.164 37.200 C 160.920 37.200,160.217 36.660,159.600 36.000 C 158.983 35.340,158.281 34.800,158.040 34.800 C 157.798 34.800,157.600 34.650,157.600 34.468 C 157.600 34.285,157.105 33.881,156.500 33.570 C 155.895 33.260,155.109 32.689,154.753 32.303 C 154.397 31.916,153.812 31.600,153.453 31.600 C 153.094 31.600,152.800 31.420,152.800 31.200 C 152.800 30.980,152.564 30.800,152.275 30.800 C 151.987 30.800,151.364 30.440,150.892 30.000 C 150.420 29.560,149.756 29.200,149.417 29.200 C 149.078 29.200,148.800 29.020,148.800 28.800 C 148.800 28.580,148.522 28.400,148.183 28.400 C 147.844 28.400,147.180 28.040,146.708 27.600 C 146.236 27.160,145.613 26.800,145.325 26.800 C 145.036 26.800,144.800 26.636,144.800 26.435 C 144.800 26.234,144.080 25.949,143.200 25.800 C 142.320 25.651,141.600 25.366,141.600 25.165 C 141.600 24.964,141.330 24.800,141.000 24.800 C 140.670 24.800,140.400 24.620,140.400 24.400 C 140.400 24.180,140.040 24.000,139.600 24.000 C 139.160 24.000,138.800 23.820,138.800 23.600 C 138.800 23.380,138.260 23.200,137.600 23.200 C 136.940 23.200,136.400 23.020,136.400 22.800 C 136.400 22.580,136.040 22.400,135.600 22.400 C 135.160 22.400,134.800 22.220,134.800 22.000 C 134.800 21.780,134.260 21.600,133.600 21.600 C 132.940 21.600,132.400 21.420,132.400 21.200 C 132.400 20.980,131.860 20.800,131.200 20.800 C 130.540 20.800,130.000 20.620,130.000 20.400 C 130.000 20.180,129.460 20.000,128.800 20.000 C 128.140 20.000,127.600 19.820,127.600 19.600 C 127.600 19.380,127.060 19.200,126.400 19.200 C 125.740 19.200,125.200 19.020,125.200 18.800 C 125.200 18.580,124.570 18.400,123.800 18.400 C 123.030 18.400,122.400 18.220,122.400 18.000 C 122.400 17.780,121.680 17.600,120.800 17.600 C 119.920 17.600,119.200 17.420,119.200 17.200 C 119.200 16.971,118.000 16.800,116.400 16.800 C 114.800 16.800,113.600 16.629,113.600 16.400 C 113.600 16.143,109.792 16.000,102.976 16.000 C 95.996 16.000,92.438 16.137,92.600 16.400 M107.600 34.400 C 107.600 34.631,108.867 34.800,110.600 34.800 C 112.333 34.800,113.600 34.969,113.600 35.200 C 113.600 35.420,114.500 35.600,115.600 35.600 C 116.700 35.600,117.600 35.780,117.600 36.000 C 117.600 36.220,118.320 36.400,119.200 36.400 C 120.080 36.400,120.800 36.580,120.800 36.800 C 120.800 37.020,121.340 37.200,122.000 37.200 C 122.660 37.200,123.200 37.380,123.200 37.600 C 123.200 37.820,123.639 38.000,124.176 38.000 C 124.713 38.000,125.264 38.180,125.400 38.400 C 125.536 38.620,125.962 38.800,126.347 38.800 C 126.731 38.800,128.296 39.429,129.823 40.199 C 131.350 40.968,132.915 41.598,133.300 41.599 C 133.685 41.599,134.000 41.780,134.000 42.000 C 134.000 42.220,134.360 42.400,134.800 42.400 C 135.240 42.400,135.600 42.580,135.600 42.800 C 135.600 43.020,135.960 43.200,136.400 43.200 C 136.840 43.200,137.200 43.380,137.200 43.600 C 137.200 43.820,137.560 44.000,138.000 44.000 C 138.440 44.000,138.800 44.180,138.800 44.400 C 138.800 44.620,139.120 44.800,139.512 44.800 C 139.903 44.800,140.483 45.160,140.800 45.600 C 141.117 46.040,141.607 46.400,141.888 46.400 C 142.170 46.400,142.400 46.580,142.400 46.800 C 142.400 47.020,142.636 47.200,142.925 47.200 C 143.213 47.200,143.836 47.560,144.308 48.000 C 144.780 48.440,145.356 48.800,145.587 48.800 C 145.818 48.800,146.572 49.340,147.263 50.000 C 147.954 50.660,148.680 51.200,148.878 51.200 C 149.075 51.200,149.686 51.650,150.236 52.200 C 150.786 52.750,151.400 53.200,151.600 53.200 C 151.800 53.200,152.377 53.609,152.882 54.109 C 153.387 54.608,154.430 55.460,155.200 56.000 C 155.970 56.540,156.996 57.347,157.479 57.791 C 157.963 58.236,159.196 59.320,160.220 60.200 C 163.806 63.283,177.466 77.200,176.905 77.200 C 176.801 77.200,177.236 77.695,177.873 78.300 C 178.510 78.905,179.473 80.030,180.013 80.800 C 180.554 81.570,181.672 82.897,182.498 83.748 C 183.324 84.600,184.000 85.473,184.000 85.688 C 184.000 85.903,184.540 86.583,185.200 87.200 C 185.860 87.817,186.400 88.492,186.400 88.701 C 186.400 88.910,186.940 89.646,187.600 90.337 C 188.260 91.028,188.800 91.735,188.800 91.908 C 188.800 92.081,189.160 92.483,189.600 92.800 C 190.040 93.117,190.400 93.519,190.400 93.693 C 190.400 94.393,193.709 98.800,194.235 98.800 C 194.546 98.800,194.800 98.980,194.800 99.200 C 194.800 99.420,195.160 99.600,195.600 99.600 C 196.040 99.600,196.400 99.780,196.400 100.000 C 196.400 100.237,197.867 100.400,200.000 100.400 C 202.133 100.400,203.600 100.237,203.600 100.000 C 203.600 99.780,203.960 99.600,204.400 99.600 C 204.840 99.600,205.200 99.420,205.200 99.200 C 205.200 98.980,205.393 98.800,205.629 98.800 C 206.297 98.800,209.600 94.577,209.600 93.723 C 209.600 93.532,209.960 93.117,210.400 92.800 C 210.840 92.483,211.200 92.081,211.200 91.908 C 211.200 91.735,211.740 91.028,212.400 90.337 C 213.060 89.646,213.600 88.910,213.600 88.701 C 213.600 88.492,214.140 87.817,214.800 87.200 C 215.460 86.583,216.000 85.881,216.000 85.640 C 216.000 85.398,216.180 85.200,216.400 85.200 C 216.620 85.200,216.800 85.020,216.800 84.800 C 216.800 84.581,217.520 83.659,218.400 82.752 C 219.280 81.845,220.000 80.941,220.000 80.741 C 220.000 80.542,220.765 79.610,221.700 78.670 C 222.635 77.731,223.940 76.264,224.600 75.411 C 226.022 73.573,236.926 62.659,240.196 59.800 C 241.454 58.700,242.690 57.614,242.942 57.387 C 243.194 57.160,244.030 56.534,244.800 55.996 C 245.570 55.458,246.613 54.608,247.118 54.109 C 247.623 53.609,248.200 53.200,248.400 53.200 C 248.600 53.200,249.214 52.750,249.764 52.200 C 250.314 51.650,250.907 51.200,251.082 51.199 C 251.257 51.199,252.030 50.659,252.800 50.000 C 253.570 49.341,254.385 48.801,254.612 48.801 C 254.838 48.800,255.283 48.440,255.600 48.000 C 255.917 47.560,256.497 47.200,256.888 47.200 C 257.280 47.200,257.600 47.020,257.600 46.800 C 257.600 46.580,257.830 46.400,258.112 46.400 C 258.393 46.400,258.883 46.040,259.200 45.600 C 259.517 45.160,260.097 44.800,260.488 44.800 C 260.880 44.800,261.200 44.620,261.200 44.400 C 261.200 44.180,261.560 44.000,262.000 44.000 C 262.440 44.000,262.800 43.820,262.800 43.600 C 262.800 43.380,263.160 43.200,263.600 43.200 C 264.040 43.200,264.400 43.020,264.400 42.800 C 264.400 42.580,264.760 42.400,265.200 42.400 C 265.640 42.400,266.000 42.236,266.000 42.035 C 266.000 41.834,266.720 41.549,267.600 41.400 C 268.480 41.251,269.200 40.966,269.200 40.765 C 269.200 40.564,269.560 40.400,270.000 40.400 C 270.440 40.400,270.800 40.220,270.800 40.000 C 270.800 39.780,271.160 39.600,271.600 39.600 C 272.040 39.600,272.400 39.420,272.400 39.200 C 272.400 38.980,272.839 38.800,273.376 38.800 C 273.913 38.800,274.464 38.620,274.600 38.400 C 274.736 38.180,275.287 38.000,275.824 38.000 C 276.361 38.000,276.800 37.820,276.800 37.600 C 276.800 37.380,277.340 37.200,278.000 37.200 C 278.660 37.200,279.200 37.020,279.200 36.800 C 279.200 36.580,279.920 36.400,280.800 36.400 C 281.680 36.400,282.400 36.220,282.400 36.000 C 282.400 35.780,283.300 35.600,284.400 35.600 C 285.500 35.600,286.400 35.420,286.400 35.200 C 286.400 34.969,287.667 34.800,289.400 34.800 C 291.133 34.800,292.400 34.631,292.400 34.400 C 292.400 34.160,294.000 34.000,296.400 34.000 C 298.800 34.000,300.400 34.160,300.400 34.400 C 300.400 34.637,301.867 34.800,304.000 34.800 C 306.133 34.800,307.600 34.963,307.600 35.200 C 307.600 35.420,308.410 35.600,309.400 35.600 C 310.390 35.600,311.200 35.780,311.200 36.000 C 311.200 36.220,311.920 36.400,312.800 36.400 C 313.680 36.400,314.400 36.580,314.400 36.800 C 314.400 37.020,315.120 37.200,316.000 37.200 C 316.880 37.200,317.600 37.380,317.600 37.600 C 317.600 37.820,318.129 38.000,318.776 38.000 C 319.423 38.000,320.064 38.180,320.200 38.400 C 320.336 38.620,320.887 38.800,321.424 38.800 C 321.961 38.800,322.400 38.980,322.400 39.200 C 322.400 39.420,322.760 39.600,323.200 39.600 C 323.640 39.600,324.000 39.780,324.000 40.000 C 324.000 40.220,324.540 40.400,325.200 40.400 C 325.860 40.400,326.400 40.572,326.400 40.782 C 326.400 40.992,327.030 41.282,327.800 41.426 C 328.570 41.571,329.200 41.849,329.200 42.045 C 329.200 42.240,329.560 42.400,330.000 42.400 C 330.440 42.400,330.800 42.580,330.800 42.800 C 330.800 43.020,331.160 43.200,331.600 43.200 C 332.040 43.200,332.400 43.380,332.400 43.600 C 332.400 43.820,332.678 44.000,333.017 44.000 C 333.356 44.000,334.020 44.360,334.492 44.800 C 334.964 45.240,335.587 45.600,335.875 45.600 C 336.164 45.600,336.400 45.780,336.400 46.000 C 336.400 46.220,336.720 46.400,337.112 46.400 C 337.503 46.400,338.083 46.760,338.400 47.200 C 338.717 47.640,339.204 48.000,339.481 48.000 C 339.950 48.000,341.069 48.870,343.468 51.100 C 344.001 51.595,344.608 52.000,344.818 52.000 C 345.028 52.000,345.200 52.180,345.200 52.400 C 345.200 52.620,345.399 52.800,345.643 52.800 C 345.886 52.800,347.011 53.700,348.143 54.800 C 349.274 55.901,352.045 58.594,354.300 60.787 C 356.555 62.979,358.400 65.023,358.400 65.330 C 358.400 65.637,359.028 66.498,359.796 67.244 C 360.563 67.990,361.193 68.827,361.196 69.104 C 361.198 69.381,361.740 70.172,362.400 70.863 C 363.060 71.554,363.600 72.322,363.600 72.571 C 363.600 72.820,363.960 73.283,364.400 73.600 C 364.840 73.917,365.200 74.407,365.200 74.688 C 365.200 74.970,365.380 75.200,365.600 75.200 C 365.820 75.200,366.000 75.520,366.000 75.912 C 366.000 76.303,366.360 76.883,366.800 77.200 C 367.240 77.517,367.600 78.097,367.600 78.488 C 367.600 78.880,367.780 79.200,368.000 79.200 C 368.220 79.200,368.400 79.560,368.400 80.000 C 368.400 80.440,368.535 80.801,368.700 80.803 C 368.865 80.805,369.199 81.210,369.441 81.703 C 369.684 82.196,370.449 83.653,371.141 84.941 C 371.834 86.228,372.400 87.623,372.400 88.041 C 372.400 88.458,372.580 88.800,372.800 88.800 C 373.020 88.800,373.200 89.160,373.200 89.600 C 373.200 90.040,373.380 90.400,373.600 90.400 C 373.820 90.400,374.000 90.670,374.000 91.000 C 374.000 91.330,374.180 91.600,374.400 91.600 C 374.620 91.600,374.800 92.140,374.800 92.800 C 374.800 93.460,374.993 94.000,375.229 94.000 C 375.464 94.000,375.605 94.405,375.541 94.900 C 375.477 95.395,375.555 96.009,375.714 96.264 C 375.873 96.520,376.042 97.195,376.089 97.764 C 376.136 98.334,376.315 98.800,376.487 98.800 C 376.659 98.800,376.800 99.239,376.800 99.776 C 376.800 100.313,376.980 100.864,377.200 101.000 C 377.420 101.136,377.600 101.777,377.600 102.424 C 377.600 103.071,377.780 103.600,378.000 103.600 C 378.220 103.600,378.400 104.219,378.400 104.976 C 378.400 105.733,378.580 106.464,378.800 106.600 C 379.020 106.736,379.200 107.467,379.200 108.224 C 379.200 108.981,379.380 109.600,379.600 109.600 C 379.820 109.600,380.000 110.500,380.000 111.600 C 380.000 112.700,380.180 113.600,380.400 113.600 C 380.622 113.600,380.800 114.667,380.800 116.000 C 380.800 117.333,380.978 118.400,381.200 118.400 C 381.435 118.400,381.600 119.800,381.600 121.800 C 381.600 123.800,381.765 125.200,382.000 125.200 C 382.255 125.200,382.400 128.467,382.400 134.200 C 382.400 139.933,382.255 143.200,382.000 143.200 C 381.763 143.200,381.600 144.667,381.600 146.800 C 381.600 148.933,381.437 150.400,381.200 150.400 C 380.978 150.400,380.800 151.467,380.800 152.800 C 380.800 154.133,380.622 155.200,380.400 155.200 C 380.180 155.200,380.000 156.111,380.000 157.224 C 380.000 158.471,379.847 159.152,379.600 159.000 C 379.359 158.851,379.200 159.388,379.200 160.353 C 379.200 161.233,379.020 162.064,378.800 162.200 C 378.580 162.336,378.400 163.067,378.400 163.824 C 378.400 164.581,378.220 165.200,378.000 165.200 C 377.780 165.200,377.600 165.740,377.600 166.400 C 377.600 167.060,377.420 167.600,377.200 167.600 C 376.980 167.600,376.800 168.129,376.800 168.776 C 376.800 169.423,376.620 170.064,376.400 170.200 C 376.180 170.336,376.000 170.876,376.000 171.400 C 376.000 171.924,375.844 172.449,375.654 172.567 C 375.463 172.685,375.394 173.235,375.500 173.790 C 375.613 174.382,375.508 174.800,375.247 174.800 C 375.001 174.800,374.800 175.070,374.800 175.400 C 374.800 175.730,374.620 176.000,374.400 176.000 C 374.180 176.000,374.000 176.540,374.000 177.200 C 374.000 177.860,373.820 178.400,373.600 178.400 C 373.380 178.400,373.200 178.760,373.200 179.200 C 373.200 179.640,373.020 180.000,372.800 180.000 C 372.580 180.000,372.400 180.360,372.400 180.800 C 372.400 181.240,372.220 181.600,372.000 181.600 C 371.780 181.600,371.600 181.960,371.600 182.400 C 371.600 182.840,371.420 183.200,371.200 183.200 C 370.980 183.200,370.800 183.560,370.800 184.000 C 370.800 184.440,370.620 184.800,370.400 184.800 C 370.180 184.800,370.000 185.160,370.000 185.600 C 370.000 186.040,369.820 186.400,369.600 186.400 C 369.380 186.400,369.200 186.760,369.200 187.200 C 369.200 187.640,369.020 188.000,368.800 188.000 C 368.580 188.000,368.400 188.278,368.400 188.617 C 368.400 188.956,368.069 189.589,367.664 190.023 C 367.259 190.458,366.675 191.305,366.367 191.907 C 366.058 192.508,365.489 193.291,365.103 193.647 C 364.716 194.003,364.400 194.560,364.400 194.885 C 364.400 195.210,364.040 195.802,363.600 196.200 C 363.160 196.598,362.800 197.084,362.800 197.280 C 362.800 197.476,362.350 198.086,361.800 198.636 C 361.250 199.186,360.800 199.810,360.800 200.022 C 360.800 200.234,360.305 200.946,359.700 201.604 C 357.828 203.642,357.601 203.950,357.578 204.483 C 357.566 204.767,356.664 205.810,355.574 206.800 C 354.484 207.790,350.849 211.352,347.496 214.716 C 344.143 218.081,340.086 222.131,338.480 223.716 C 334.734 227.416,327.416 234.734,323.716 238.480 C 322.131 240.086,318.081 244.149,314.716 247.510 C 307.091 255.127,305.127 257.091,297.510 264.716 C 294.149 268.081,290.086 272.131,288.480 273.716 C 284.734 277.416,277.416 284.734,273.716 288.480 C 272.131 290.086,268.081 294.149,264.716 297.510 C 257.091 305.127,255.127 307.091,247.510 314.716 C 244.149 318.081,240.086 322.131,238.480 323.716 C 235.033 327.120,227.593 334.552,224.200 337.981 C 213.567 348.727,200.416 361.600,200.071 361.600 C 199.571 361.600,197.248 359.540,193.863 356.092 C 192.508 354.713,188.610 350.802,185.200 347.400 C 181.790 343.999,178.100 340.312,177.000 339.205 C 171.565 333.739,164.143 326.304,161.623 323.800 C 157.430 319.634,146.545 308.763,143.800 306.000 C 142.480 304.672,138.610 300.802,135.200 297.401 C 131.790 294.000,128.123 290.335,127.051 289.257 C 121.824 283.999,114.148 276.309,111.623 273.800 C 107.430 269.634,96.545 258.763,93.800 256.000 C 92.480 254.672,88.610 250.802,85.200 247.401 C 81.790 244.000,78.123 240.335,77.051 239.257 C 71.247 233.419,64.089 226.252,61.520 223.706 C 56.598 218.827,53.825 215.832,53.269 214.793 C 52.976 214.247,52.026 213.260,51.157 212.600 C 48.820 210.825,45.600 207.872,45.600 207.504 C 45.600 207.327,44.655 206.207,43.500 205.015 C 40.962 202.396,40.653 202.023,39.991 200.775 C 39.707 200.239,39.143 199.509,38.737 199.153 C 38.332 198.797,38.000 198.347,37.999 198.153 C 37.999 197.959,37.459 197.170,36.800 196.400 C 36.141 195.630,35.601 194.857,35.601 194.683 C 35.600 194.509,35.269 194.011,34.864 193.577 C 34.459 193.142,33.874 192.295,33.564 191.693 C 33.254 191.092,32.685 190.251,32.300 189.825 C 31.915 189.398,31.600 188.813,31.600 188.525 C 31.600 188.236,31.420 188.000,31.200 188.000 C 30.980 188.000,30.800 187.640,30.800 187.200 C 30.800 186.760,30.620 186.400,30.400 186.400 C 30.180 186.400,30.000 186.040,30.000 185.600 C 30.000 185.160,29.820 184.800,29.600 184.800 C 29.380 184.800,29.200 184.440,29.200 184.000 C 29.200 183.560,29.020 183.200,28.800 183.200 C 28.580 183.200,28.400 182.840,28.400 182.400 C 28.400 181.960,28.220 181.600,28.000 181.600 C 27.780 181.600,27.600 181.240,27.600 180.800 C 27.600 180.360,27.420 180.000,27.200 180.000 C 26.980 180.000,26.800 179.640,26.800 179.200 C 26.800 178.760,26.620 178.400,26.400 178.400 C 26.180 178.400,26.000 177.860,26.000 177.200 C 26.000 176.540,25.822 176.000,25.605 176.000 C 25.387 176.000,25.094 175.276,24.952 174.391 C 24.811 173.506,24.539 172.686,24.347 172.568 C 24.156 172.449,24.000 171.823,24.000 171.176 C 24.000 170.529,23.820 170.000,23.600 170.000 C 23.380 170.000,23.200 169.460,23.200 168.800 C 23.200 168.140,23.020 167.600,22.800 167.600 C 22.580 167.600,22.400 167.060,22.400 166.400 C 22.400 165.740,22.220 165.200,22.000 165.200 C 21.780 165.200,21.600 164.581,21.600 163.824 C 21.600 163.067,21.420 162.336,21.200 162.200 C 20.980 162.064,20.800 161.233,20.800 160.353 C 20.800 159.388,20.641 158.851,20.400 159.000 C 20.153 159.152,20.000 158.471,20.000 157.224 C 20.000 156.111,19.820 155.200,19.600 155.200 C 19.378 155.200,19.200 154.133,19.200 152.800 C 19.200 151.467,19.022 150.400,18.800 150.400 C 18.563 150.400,18.400 148.933,18.400 146.800 C 18.400 144.667,18.237 143.200,18.000 143.200 C 17.745 143.200,17.600 139.933,17.600 134.200 C 17.600 128.467,17.745 125.200,18.000 125.200 C 18.235 125.200,18.400 123.800,18.400 121.800 C 18.400 119.800,18.565 118.400,18.800 118.400 C 19.022 118.400,19.200 117.333,19.200 116.000 C 19.200 114.667,19.378 113.600,19.600 113.600 C 19.820 113.600,20.000 112.700,20.000 111.600 C 20.000 110.500,20.180 109.600,20.400 109.600 C 20.620 109.600,20.800 108.981,20.800 108.224 C 20.800 107.467,20.980 106.736,21.200 106.600 C 21.420 106.464,21.600 105.744,21.600 105.000 C 21.600 104.256,21.780 103.536,22.000 103.400 C 22.220 103.264,22.400 102.724,22.400 102.200 C 22.400 101.676,22.580 101.136,22.800 101.000 C 23.020 100.864,23.200 100.229,23.200 99.589 C 23.200 98.948,23.553 97.796,23.984 97.028 C 24.415 96.261,24.889 94.725,25.036 93.616 C 25.183 92.507,25.460 91.600,25.652 91.600 C 25.843 91.600,26.000 91.330,26.000 91.000 C 26.000 90.670,26.180 90.400,26.400 90.400 C 26.620 90.400,26.800 90.040,26.800 89.600 C 26.800 89.160,26.980 88.800,27.200 88.800 C 27.420 88.800,27.600 88.458,27.600 88.041 C 27.600 87.623,28.166 86.228,28.859 84.941 C 29.551 83.653,30.316 82.196,30.559 81.703 C 30.801 81.210,31.135 80.805,31.300 80.803 C 31.465 80.801,31.600 80.440,31.600 80.000 C 31.600 79.560,31.780 79.200,32.000 79.200 C 32.220 79.200,32.400 78.880,32.400 78.488 C 32.400 78.097,32.760 77.517,33.200 77.200 C 33.640 76.883,34.000 76.303,34.000 75.912 C 34.000 75.520,34.180 75.200,34.400 75.200 C 34.620 75.200,34.800 74.970,34.800 74.688 C 34.800 74.407,35.160 73.917,35.600 73.600 C 36.040 73.283,36.400 72.838,36.401 72.612 C 36.401 72.385,36.941 71.570,37.600 70.800 C 38.259 70.030,38.799 69.259,38.799 69.087 C 38.800 68.914,39.430 68.143,40.200 67.373 C 40.970 66.603,41.600 65.703,41.600 65.373 C 41.600 64.620,53.569 52.800,54.332 52.800 C 54.498 52.800,55.282 52.215,56.076 51.500 C 59.403 48.501,60.039 48.000,60.519 48.000 C 60.796 48.000,61.283 47.640,61.600 47.200 C 61.917 46.760,62.497 46.400,62.888 46.400 C 63.280 46.400,63.600 46.220,63.600 46.000 C 63.600 45.780,63.836 45.600,64.125 45.600 C 64.413 45.600,65.036 45.240,65.508 44.800 C 65.980 44.360,66.644 44.000,66.983 44.000 C 67.322 44.000,67.600 43.820,67.600 43.600 C 67.600 43.380,67.960 43.200,68.400 43.200 C 68.840 43.200,69.200 43.020,69.200 42.800 C 69.200 42.580,69.560 42.400,70.000 42.400 C 70.440 42.400,70.800 42.220,70.800 42.000 C 70.800 41.780,71.115 41.599,71.500 41.598 C 71.885 41.596,72.716 41.326,73.346 40.998 C 73.976 40.669,74.831 40.400,75.246 40.400 C 75.661 40.400,76.000 40.220,76.000 40.000 C 76.000 39.780,76.360 39.600,76.800 39.600 C 77.240 39.600,77.600 39.420,77.600 39.200 C 77.600 38.980,78.140 38.800,78.800 38.800 C 79.460 38.800,80.000 38.620,80.000 38.400 C 80.000 38.180,80.540 38.000,81.200 38.000 C 81.860 38.000,82.400 37.820,82.400 37.600 C 82.400 37.380,83.120 37.200,84.000 37.200 C 84.880 37.200,85.600 37.020,85.600 36.800 C 85.600 36.580,86.320 36.400,87.200 36.400 C 88.080 36.400,88.800 36.220,88.800 36.000 C 88.800 35.780,89.610 35.600,90.600 35.600 C 91.590 35.600,92.400 35.420,92.400 35.200 C 92.400 34.963,93.867 34.800,96.000 34.800 C 98.133 34.800,99.600 34.637,99.600 34.400 C 99.600 34.160,101.200 34.000,103.600 34.000 C 106.000 34.000,107.600 34.160,107.600 34.400 " stroke="none" fill="#8c041c" fill-rule="evenodd"></path><path id="path1" d="" stroke="none" fill="#90041c" fill-rule="evenodd"></path><path id="path2" d="" stroke="none" fill="#90041c" fill-rule="evenodd"></path><path id="path3" d="" stroke="none" fill="#90041c" fill-rule="evenodd"></path><path id="path4" d="" stroke="none" fill="#90041c" fill-rule="evenodd"></path></g></svg>